<svg xmlns="http://www.w3.org/2000/svg" viewBox="0 0 64 64" fill="none" stroke="currentColor" stroke-width="2" stroke-linecap="round" stroke-linejoin="round">
  <!-- Tall office body -->
  <rect x="8" y="10" width="48" height="38" rx="3"/>
  <!-- Paper tray (bottom) -->
  <rect x="12" y="48" width="40" height="8" rx="2"/>
  <!-- Tray handle -->
  <rect x="24" y="50" width="16" height="2" rx="1" fill="currentColor" opacity="0.4"/>
  <!-- Output tray (top) -->
  <path d="M14 10 L14 6 L50 6 L50 10" stroke-width="1.5"/>
  <!-- Paper in output tray -->
  <rect x="18" y="4" width="28" height="4" rx="1" opacity="0.4" fill="currentColor"/>
  <!-- Display panel -->
  <rect x="14" y="16" width="20" height="8" rx="2" fill="currentColor" opacity="0.15"/>
  <!-- Display text lines -->
  <line x1="17" y1="19" x2="28" y2="19" stroke-width="1" opacity="0.5"/>
  <line x1="17" y1="22" x2="24" y2="22" stroke-width="1" opacity="0.3"/>
  <!-- Control buttons -->
  <circle cx="42" cy="18" r="2" fill="currentColor" opacity="0.5"/>
  <circle cx="42" cy="24" r="2" fill="currentColor" opacity="0.3"/>
  <circle cx="48" cy="18" r="2" fill="currentColor" opacity="0.3"/>
  <circle cx="48" cy="24" r="2" fill="currentColor" opacity="0.5"/>
  <!-- Color indicator dots (CMYK) -->
  <circle cx="18" cy="36" r="2.5" fill="#00bcd4" opacity="0.7"/>
  <circle cx="26" cy="36" r="2.5" fill="#e91e63" opacity="0.7"/>
  <circle cx="34" cy="36" r="2.5" fill="#fdd835" opacity="0.7"/>
  <circle cx="42" cy="36" r="2.5" fill="#333" opacity="0.7" stroke="none"/>
</svg>
